<svg xmlns="http://www.w3.org/2000/svg" viewBox="0 0 1200 675" width="1200" height="675">
  <defs>
    <linearGradient id="bg1" x1="0%" y1="0%" x2="100%" y2="100%">
      <stop offset="0%" style="stop-color:#1C1917"/>
      <stop offset="100%" style="stop-color:#292524"/>
    </linearGradient>
    <linearGradient id="gold1" x1="0%" y1="0%" x2="100%" y2="0%">
      <stop offset="0%" style="stop-color:#CA8A04"/>
      <stop offset="100%" style="stop-color:#EAB308"/>
    </linearGradient>
  </defs>
  <rect width="1200" height="675" fill="url(#bg1)"/>
  <!-- Kitchen counter illustration -->
  <rect x="100" y="320" width="1000" height="20" rx="4" fill="url(#gold1)" opacity="0.9"/>
  <!-- Cabinets -->
  <rect x="120" y="140" width="180" height="180" rx="8" fill="#44403C" stroke="#CA8A04" stroke-width="2"/>
  <rect x="120" y="140" width="180" height="180" rx="8" fill="none" stroke="#78716C" stroke-width="1" stroke-dasharray="0"/>
  <circle cx="280" cy="230" r="6" fill="#CA8A04"/>
  <rect x="340" y="140" width="180" height="180" rx="8" fill="#44403C" stroke="#CA8A04" stroke-width="2"/>
  <circle cx="500" cy="230" r="6" fill="#CA8A04"/>
  <rect x="560" y="140" width="180" height="180" rx="8" fill="#44403C" stroke="#CA8A04" stroke-width="2"/>
  <circle cx="720" cy="230" r="6" fill="#CA8A04"/>
  <!-- Lower cabinets -->
  <rect x="120" y="345" width="230" height="160" rx="8" fill="#44403C" stroke="#78716C" stroke-width="1.5"/>
  <line x1="235" y1="345" x2="235" y2="505" stroke="#78716C" stroke-width="1"/>
  <circle cx="220" cy="420" r="5" fill="#CA8A04"/>
  <circle cx="250" cy="420" r="5" fill="#CA8A04"/>
  <rect x="380" y="345" width="230" height="160" rx="8" fill="#44403C" stroke="#78716C" stroke-width="1.5"/>
  <line x1="495" y1="345" x2="495" y2="505" stroke="#78716C" stroke-width="1"/>
  <circle cx="480" cy="420" r="5" fill="#CA8A04"/>
  <circle cx="510" cy="420" r="5" fill="#CA8A04"/>
  <rect x="640" y="345" width="230" height="160" rx="8" fill="#44403C" stroke="#78716C" stroke-width="1.5"/>
  <line x1="755" y1="345" x2="755" y2="505" stroke="#78716C" stroke-width="1"/>
  <circle cx="740" cy="420" r="5" fill="#CA8A04"/>
  <circle cx="770" cy="420" r="5" fill="#CA8A04"/>
  <!-- Sink -->
  <ellipse cx="900" cy="305" rx="70" ry="15" fill="#57534E" stroke="#78716C" stroke-width="1.5"/>
  <ellipse cx="900" cy="305" rx="50" ry="10" fill="#44403C"/>
  <!-- Faucet -->
  <path d="M 900 290 Q 900 260 920 260 L 930 260" stroke="#CA8A04" stroke-width="4" fill="none" stroke-linecap="round"/>
  <!-- Decorative elements -->
  <rect x="800" y="140" width="280" height="180" rx="8" fill="none" stroke="#CA8A04" stroke-width="1" stroke-dasharray="8 4" opacity="0.4"/>
  <text x="940" y="235" font-family="Georgia, serif" font-size="14" fill="#CA8A04" text-anchor="middle" opacity="0.6">ventana</text>
  <!-- Text overlay -->
  <rect x="0" y="530" width="1200" height="145" fill="#1C1917" opacity="0.85"/>
  <text x="600" y="590" font-family="Georgia, serif" font-size="38" fill="white" text-anchor="middle" font-weight="600">Cómo Elegir la Cocina Perfecta</text>
  <text x="600" y="630" font-family="sans-serif" font-size="18" fill="#CA8A04" text-anchor="middle">Guía completa de distribución, materiales y presupuesto</text>
</svg>
